# xmcd
#
# Track frame offsets: 
#        150
#        19288
#        36339
#        55267
#        73588
#        90334
#        107356
#        128874
#        143686
#        162814
#        179846
#
# Disc length: 2635 seconds
#
# Revision: 0
# Processed by: cddbd v1.5.2PL0 Copyright (c) Steve Scherf et al.
# Submitted via: ExactAudioCopy v1.3
#
DISCID=920a490b
DTITLE=Bobby Rush - Sitting On Top Of The Blues
DYEAR=2019
DGENRE=Blues
TTITLE0=Hey Hey Bobby Rush
TTITLE1=Good Stuff
TTITLE2=Get Out Of Here (Dog Named Bo)
TTITLE3=You Got The Goods On You
TTITLE4=Sweet Lizzy
TTITLE5=Recipe For Love
TTITLE6=Bobby Rush Shuffle
TTITLE7=Pooky Poo
TTITLE8=Slow Motion
TTITLE9=Shake Til' You Get Enough
TTITLE10=Bowlegged Woman
EXTD=
EXTT0=
EXTT1=
EXTT2=
EXTT3=
EXTT4=
EXTT5=
EXTT6=
EXTT7=
EXTT8=
EXTT9=
EXTT10=
PLAYORDER=
